<?xml version="1.0" encoding="UTF-8" standalone="no"?>
<svg
   xmlns:dc="http://purl.org/dc/elements/1.1/"
   xmlns:cc="http://creativecommons.org/ns#"
   xmlns:rdf="http://www.w3.org/1999/02/22-rdf-syntax-ns#"
   xmlns:svg="http://www.w3.org/2000/svg"
   xmlns="http://www.w3.org/2000/svg"
   viewBox="0 0 1122.52 377.95334"
   height="377.95334"
   width="1122.52"
   xml:space="preserve"
   id="svg2"
   version="1.1"><metadata
     id="metadata8"><rdf:RDF><cc:Work
         rdf:about=""><dc:format>image/svg+xml</dc:format><dc:type
           rdf:resource="http://purl.org/dc/dcmitype/StillImage" /></cc:Work></rdf:RDF></metadata><defs
     id="defs6"><clipPath
       id="clipPath24"
       clipPathUnits="userSpaceOnUse"><path
         id="path22"
         d="M 0,283.465 H 841.89 V 0 H 0 Z" /></clipPath></defs><g
     transform="matrix(1.3333333,0,0,-1.3333333,0,377.95333)"
     id="g10"><path
       id="path12"
       style="fill:#58585a;fill-opacity:1;fill-rule:nonzero;stroke:none"
       d="m 586.85,239.906 h 19.689 V 42.871 H 586.85 Z" /><g
       transform="translate(624.6074,42.8711)"
       id="g14"><path
         id="path16"
         style="fill:#58585a;fill-opacity:1;fill-rule:nonzero;stroke:none"
         d="M 0,0 V 197.035 H 4.285 L 135.42,45.998 v 151.037 h 19.422 V 0 h -4.42 L 20.359,149.2 V 0 Z" /></g><g
       id="g18"><g
         clip-path="url(#clipPath24)"
         id="g20"><g
           transform="translate(81.7271,137.7051)"
           id="g26"><path
             id="path28"
             style="fill:#3e3e40;fill-opacity:1;fill-rule:nonzero;stroke:none"
             d="m 0,0 v -75.545 h 24.421 c 14.401,0 24.956,1.406 31.665,4.219 6.708,2.812 12.098,7.21 16.169,13.193 4.069,5.983 6.105,12.457 6.105,19.422 0,8.752 -2.861,16.386 -8.583,22.906 C 64.054,-9.289 56.189,-4.82 46.177,-2.41 39.465,-0.803 27.786,0 11.142,0 Z M 0,82.915 V 19.824 h 11.275 c 13.692,0 23.759,1.273 30.203,3.817 6.442,2.546 11.544,6.564 15.304,12.055 3.759,5.493 5.638,11.587 5.638,18.285 0,9.018 -3.156,16.096 -9.464,21.231 -6.309,5.134 -16.355,7.703 -30.136,7.703 z m -19.287,19.286 h 38.844 c 15.626,0 27.637,-1.854 36.031,-5.557 8.393,-3.708 15.024,-9.401 19.892,-17.08 4.865,-7.681 7.299,-16.207 7.299,-25.583 0,-8.753 -2.132,-16.723 -6.397,-23.91 C 72.117,22.881 65.85,17.056 57.587,12.591 67.827,9.108 75.704,5.023 81.225,0.336 c 5.519,-4.69 9.814,-10.36 12.885,-17.012 3.073,-6.654 4.61,-13.865 4.61,-21.633 0,-15.805 -5.783,-29.178 -17.346,-40.117 C 69.808,-89.365 54.293,-94.834 34.827,-94.834 h -54.114 z" /></g><g
           transform="translate(170.5513,239.9058)"
           id="g30"><path
             id="path32"
             style="fill:#3e3e40;fill-opacity:1;fill-rule:nonzero;stroke:none"
             d="m 0,0 h 19.689 v -178.015 h 75.814 v -19.02 H 0 Z" /></g><g
           transform="translate(467.1367,127.0674)"
           id="g34"><path
             id="path36"
             style="fill:#3e3e40;fill-opacity:1;fill-rule:nonzero;stroke:none"
             d="M 0,0 13.924,13.923 0.002,27.847 -84.595,112.441 h -27.847 l 98.518,-98.52 -98.518,-98.516 h 27.844 z" /></g><g
           transform="translate(486.8867,147.2383)"
           id="g38"><path
             id="path40"
             style="fill:#58585a;fill-opacity:1;fill-rule:nonzero;stroke:none"
             d="M 0,0 92.27,92.27 H 64.424 l -78.348,-78.345 0.213,-0.213 z" /></g><g
           transform="translate(473.1738,121.0293)"
           id="g42"><path
             id="path44"
             style="fill:#58585a;fill-opacity:1;fill-rule:nonzero;stroke:none"
             d="m 0,0 -0.211,-0.209 78.352,-78.348 h 27.841 L 13.713,13.712 Z" /></g><g
           transform="translate(348.6577,48.5098)"
           id="g46"><path
             id="path48"
             style="fill:#3e3e40;fill-opacity:1;fill-rule:nonzero;stroke:none"
             d="M 0,0 13.65,13.65 H -69.03 V 172.11 H 12.852 L 0,184.961 -6.435,191.396 H -88.719 V -5.639 H -5.64 Z" /></g><g
           transform="translate(484.7578,198.4565)"
           id="g50"><path
             id="path52"
             style="fill:#f29400;fill-opacity:1;fill-rule:nonzero;stroke:none"
             d="m 0,0 c 0,-7.76 -6.291,-14.052 -14.051,-14.052 -7.76,0 -14.051,6.292 -14.051,14.052 0,7.76 6.291,14.051 14.051,14.051 C -6.291,14.051 0,7.76 0,0" /></g><path
           id="path54"
           style="fill:#3e3e40;fill-opacity:1;fill-rule:nonzero;stroke:none"
           d="M 464.48,151.234 H 267.49 v -19.689 h 196.99 z" /></g></g></g></svg>