<svg id="Layer_1" data-name="Layer 1" xmlns="http://www.w3.org/2000/svg" viewBox="0 0 623.62 255.12"><defs><style>.cls-1{fill:#1d1d1b;}.cls-2{fill:#009fdc;}</style></defs><title>nethesis</title><path class="cls-1" d="M35.13,75.05c0,13.67-13.41,13.67-13.41,13.67V58.46H35.13Z"/><path class="cls-1" d="M188.44,132.56c0-13.84-3.26-24.79-9.68-32.57S163,88,151.47,88s-21.22,4.18-28.33,12.39c-6.71,7.76-10.11,17.63-10.11,29.33,0,12.12,3.08,21.93,9.18,29.2,6.72,7.95,16.58,12,29.26,12,10,0,18.18-2.57,24.36-7.66,5.25-4.35,9.24-10.66,11.84-18.77l.75-2.32H174.11l-.35,1.39a19.29,19.29,0,0,1-7.87,11.68,24.78,24.78,0,0,1-14.42,4.18c-8,0-14.13-2.47-18.57-7.59-3.86-4.45-6-10.33-6.24-17.49h61.78Zm-37-33c7.5,0,13.19,2.49,17.42,7.59,3.56,4.28,5.5,9.82,5.8,16.44h-47.8a33,33,0,0,1,7.27-16.31A21.71,21.71,0,0,1,151.47,99.52Z"/><path class="cls-1" d="M226.77,101.49h17.61v-13H225.79V79.9c0-13.67-13.4-13.67-13.4-13.67V88.52H199.53v13h12.86v38.28c0,9.45,3.09,17.1,9.17,22.77s13.45,8.4,22.78,8.4V158.23c-6.43,0-11.19-2.1-14.58-6.43a19.64,19.64,0,0,1-4-12.48V101.49Z"/><path class="cls-2" d="M415.23,132.56c0-13.84-3.25-24.79-9.68-32.57S389.84,88,378.28,88,357,92.22,349.93,100.43c-6.71,7.76-10.1,17.63-10.1,29.33,0,12.12,3.08,21.93,9.18,29.2,6.72,7.95,16.58,12,29.27,12,10,0,18.17-2.57,24.35-7.66,5.25-4.35,9.24-10.66,11.85-18.77l.75-2.32H400.91l-.34,1.39a19.33,19.33,0,0,1-7.87,11.68,24.8,24.8,0,0,1-14.42,4.18c-8.06,0-14.14-2.47-18.59-7.59-3.82-4.45-5.94-10.33-6.25-17.49h61.79Zm-37-33c7.5,0,13.18,2.49,17.39,7.59,3.58,4.28,5.54,9.82,5.81,16.44H353.69A33.08,33.08,0,0,1,361,107.24,21.75,21.75,0,0,1,378.28,99.52Z"/><path class="cls-1" d="M67.07,100.76c6.44,0,11.22,2.1,14.62,6.43a19.64,19.64,0,0,1,4,12.47v37.61c0,13.67,13.4,13.67,13.4,13.67V119.21c0-9.32-3-16.92-8.94-22.64C84,90.83,76.49,88,67.07,88S50.31,90.79,44.3,96.46s-9.17,13.31-9.17,22.75v51.73H48.51V119.66a19.52,19.52,0,0,1,4-12.47C55.88,102.86,60.64,100.76,67.07,100.76Z"/><path class="cls-1" d="M316.88,96.57c-6.08-5.74-13.59-8.53-23-8.53-7.27,0-13.37,1.7-18.56,5.11V62.85H261.92v79.34h13.39V119.66a19.46,19.46,0,0,1,4-12.47c3.39-4.33,8.15-6.43,14.58-6.43s11.21,2.1,14.61,6.43a19.64,19.64,0,0,1,3.95,12.47v37.72c0,13.67,13.41,13.67,13.41,13.67V119.21C325.84,109.89,322.82,102.29,316.88,96.57Z"/><path class="cls-2" d="M488.38,130.83c-3-2.33-7.66-4.23-13.83-5.65l-14.49-3.33c-5.76-1.32-9.45-2.45-11.3-3.48a8,8,0,0,1-4.63-7.48,9.42,9.42,0,0,1,4.62-8.33c2.9-1.86,6.8-2.81,11.59-2.81a24.58,24.58,0,0,1,10.82,2.15,12.5,12.5,0,0,1,7.22,10.24h14.25c-.53-7.68-3.56-13.42-9.25-17.53-6-4.34-13.33-6.57-21.84-6.57-10.22,0-18,2.33-23.23,6.9a22,22,0,0,0-7.77,17.16c0,7.59,2.56,13,7.83,16.52,3.16,2.14,9.12,4.14,17.72,6l9,1.92c5.39,1.13,9.28,2.41,11.83,3.93a8,8,0,0,1,4.19,7.18c0,5.1-2.75,8.63-8.19,10.48a33.73,33.73,0,0,1-10.52,1.38c-7.29,0-12.54-1.83-15.63-5.41a16.42,16.42,0,0,1-3.26-7.86H429.23c.27,7.45,3.25,13.41,8.86,17.73,6,4.62,14.38,7,24.92,7,10.34,0,18.4-2.37,24-7a21.91,21.91,0,0,0,8.36-17.5C495.34,139.52,493.06,134.43,488.38,130.83Z"/><path class="cls-2" d="M594.94,130.83c-3-2.33-7.66-4.23-13.83-5.65l-14.5-3.33c-5.75-1.32-9.44-2.45-11.29-3.48a8,8,0,0,1-4.64-7.48,9.44,9.44,0,0,1,4.62-8.33c2.91-1.86,6.81-2.81,11.59-2.81a24.55,24.55,0,0,1,10.82,2.15,12.53,12.53,0,0,1,7.23,10.24h14.24c-.54-7.68-3.56-13.42-9.25-17.53-6-4.34-13.33-6.57-21.84-6.57-10.22,0-18,2.33-23.23,6.9a22,22,0,0,0-7.77,17.16c0,7.59,2.56,13,7.84,16.52,3.15,2.14,9.12,4.14,17.71,6l8.94,1.92c5.4,1.13,9.29,2.41,11.84,3.93a8,8,0,0,1,4.19,7.18c0,5.1-2.74,8.63-8.19,10.48a33.73,33.73,0,0,1-10.52,1.38c-7.28,0-12.53-1.83-15.63-5.41a16.32,16.32,0,0,1-3.25-7.86H535.78c.27,7.45,3.26,13.41,8.86,17.73,6,4.62,14.38,7,24.93,7,10.33,0,18.39-2.37,24-7a21.89,21.89,0,0,0,8.37-17.5C601.9,139.52,599.61,134.43,594.94,130.83Z"/><path class="cls-2" d="M508.4,87.89s13.39,0,13.39,13.68v69.37H508.4Z"/><path class="cls-2" d="M522.57,189.17a7.49,7.49,0,1,1-7.49-7.49A7.49,7.49,0,0,1,522.57,189.17Z"/></svg>